<svg id="aa88eea2-716b-47a3-bd36-06e805492c2b" data-name="svg8" xmlns="http://www.w3.org/2000/svg" viewBox="0 0 1380.55 473"><defs><style>.e449e23f-e669-474b-a2d0-d546548b259c{fill:#fff;}</style></defs><g id="ae430152-aefd-43c5-9445-aceeac381f53" data-name="layer1"><path id="e9a0317e-9f44-418f-b0b3-82017bde26d6" data-name="path1048" class="e449e23f-e669-474b-a2d0-d546548b259c" d="M154.51,483.3,141,480.55,130.8,478,124,475.67l-3.5-1.3-3.5-1.31-8.39-4.18-8.38-4.19-7-4.65-7-4.66-2.48-1.66-2.48-1.67-9-7.82-9-7.82-6.69-7.51L50,421.38l-3.46-4.45L43,412.48l-4.79-7.55-4.78-7.55-4.88-10-4.88-10-3.54-10.5-3.53-10.5L15,349.19l-2.87-18.27-2.7-31.55,1.22-23.43,2.56-15.45,2.55-8.57,1.79-6,1.25-5.5,1.78-5.63,1.78-5.62,2.12-4.88,2.13-4.87,3.1-6,3.1-6,3.32-5.2L39.46,197l6.89-9.29,6.89-9.3L60,171.16l6.72-7.22,9.18-7.37L85,149.19l8.84-5.69,8.85-5.69,10.11-5.08L123,127.66l5.54-1.78L134,124.1l-.3-1.86-.3-1.86-.59-2.5-.6-2.5.2-10.5.19-10.5,1-5.82,1-5.82-3.3-5.17L128,72.4,128.32,58l.27-14.35,1.48-3.53L132,36.64V29.86l1.58-4.35,2-4.36,4.21-3,4.21-3L148,14l4-2,9.87,1h10.23l3.42,3.45L179,19.91l.85,1.54.84,1.55,5.87,1H192l7.5-.71,7.5-.52,4.63,3,4.64,3,1.82,4.13L220,37l2.47.62,2.47.62L228,36.9,231,35.61l3.83-.48,3.84-.47,4,1.79,4,1.8,1.49,2.88L249,44l1,6.18v6.18l.49,15.5,1,15.5-1.65,5.5L248,98.38l1,9.17v9.16l-3.25,3.1-2.29,3.1,1.29.38,1.29.38,8,2.73,8,2.72,8.66,4.35,8.66,4.34,8.84,5.7,8.84,5.7,7,5.5,7,5.51,8.31,8.43,8.32,8.44,7.54,10.14,7.53,10.15,2.51,4.27,2.5,4.27,4-4.57,4-4.57,5.64-3.83,5.65-3.84,5-1.85,5-2.26,59.5,1H496l3.68-.17,3.67,1.09,2.67,3.17,2.66,3.16,1.66-1.19,1.66-1.2,4.19-1.93,4.18-1.92,5.75-1.07,5.75-.94H642.6l3.3,1.26,3.3,1.38,2.14,2.71,2.13,2.72,2.81-2,2.8-2,5.48-1.84L670,186h491l6,1.67,5.94,1.67,5.81,2.66h5.8l3.43-3.49,11.07-4.68,11.49,6,4.91,4.11,5.42-4.41,12.65-5.77c13.52,9.77,0,0,13.45,9.58l.07.19.06.2,6.61-3.33,6.6-3.32,8.46-1.2,8.46-1.92,34.91,1H1347l5.5,2.29,5.5,1.78,5.5,3.11,5.5,3.1,5.27,5,5.27,5,2.23,3.58,2.23,3.59,2.75,6.47,2.21,6.47V428.78l1,52.79V484h-4.12L770,485H170.58ZM1376,444.35V429.81l-4-2.06-3-2.07v-3.87l3-2.06,4-2.07V386H316l.31-3.37.32-2.63,112.89-1,39.5-.5,4.72-2.18,4.72-2.18,4.47-4.6,4.47-4.6,2.55-5.22,2.55-5.22,1.11-6,1.1-6-.41-20.5-.42-20.5-2.26-5.78-2.27-5.78-3.19-4.19-3.2-4.19-4.26-3.26-4.27-3.25-5.14-1.52L464.18,272H390.53l-1.17-1.41-1.17-1.4.29-15.6.28-15.59,53,1,53.21-.26V201H383L378,202.93l-5.07,1.92-4.44,3.64L364,212.13l-2.94,4.27-2.94,4.27-2.06,6.13L354,232.94v21.19l.37,5.36-5.68-6L344.55,241l-4.13-12.5-4.76-9-4.76-9-6.42-9-6.42-9-7.57-8.22-7.57-8.22-7.21-5.89-7.21-5.89-8.76-5.71L271,152.86l-10.24-4.78L250.5,143.3l-8-2.59-8-2.6-6.5-1.48-6.5-1.49-4-.6-4-.61-2.75-.54-2.75-.55v-5.91l2.75-1.77,2.75-1.78,1.8-2,1.79-2,2-4.33,1.95-4.33V99.64l-1.2-3.32L218.6,93l5.74-5.11,5.74-5.12,2-3.84,2-3.85V67.8l-1.55-3.26-1.54-3.25L228,58.53l-2.88-2.76-4.51-.51-4.5-.5-4.39,2.12L207.37,59h-2.75l-4.54-2.86-4.54-2.74-.6-3.2-.6-3.19L195,46l.66-1h-3.88l-1.24-1.62-1.25-1.51-3.13-.82L183,40.22l-3.5.93-3.5.92-2.15,2-2.16,2-2.32-.34-2.32-.33-1.26-2.5L164,40.38l1-5.19V30l-.86-.53-.85-.53-5.14.61-5.14.61-1.75,1.28-1.75,1.28-.12,4.82-.13,4.83-1.87,4.76-1.87,4.75,1.5,2.66,1.49,2.65,2.94,1,2.94,1,4.21-2.23,4.22-2.24,1.83.35,1.84.35.31,3.12.3,3.11L163.92,64l-3.18,2.37-3.23,3.17-3.24,3.17-1.13,4.52L152,81.74v7l-1.06,5-1.07,5L151,103l1.15,4.28,3.29,3.3,3.3,3.29.68,4.56.69,4.56,2.93,3.34,2.93,3.34v4.29l-1.71.37-1.25.37-8,1.73-8,1.73L138,141l-9,2.86-9.5,4.82L110,153.5l-11.5,7.6L87,168.7l-8.3,7.72-8.3,7.73-6.31,8.11-6.31,8.12-5.31,8.5-5.32,8.5-4.25,9-4.25,9-2.56,8-2.57,8-1.91,9-1.92,9-1.24,9.92-1.24,9.91.57,12.13.58,12.12,2.66,13,2.67,13,2.52,7.5,2.52,7.5,4.75,10.09,4.75,10.1,5.3,7.9,5.31,7.91,6.37,8.19,6.36,8.19,7.13,6.6L85.87,420l4.59,3.15L95,426.27l7.43,5,7.43,5L122,441.94,134,447.68l8,2.5,8,2.5,10.63,2.18L171.31,457l8.86.79L189,458l593.25,1H1376Zm-927,7.72-1-1.94v-5l1.57-1.57,1.57-1.57H470v-7H455.94l-3.78-4-3.78-3.87-.54-4.07-.55-4.06.65-3.44.64-3.44,2.34-2.53,2.34-2.52,3.16-1.63,3.15-1.64,10.73.29,10.7.28v11l-10.27.29-10.31.28.31,3.72.31,3.71,7.18.29,7.19.3,3.06,3.49L481,431v14.78l-2.1,2.76-2.11,2.75-3.2,1.38-3.2,1.38H450Zm57.2.73-1.2-1.2V413h-7.6l-1.2-1.2-1.2-1.2v-4.2l1.2-1.2,1.2-1.2h31.2l1.2,1.2,1.2,1.2v4.2l-1.2,1.2-1.2,1.2H521v38.6l-1.2,1.2-1.2,1.2H507.4Zm38.58-.05L544,451.5l1-19.11v-19l1.34-2.5,1.82-2.51,4.4-2.25L557,404h21.62l1.08,2.26,1.08,2.37-1.13,2.13L578.47,413h-23l.31,5.25.3,5.25,6,.5,6,.5.31,3.82.32,3.82-1.19,1.43L566.29,435H556v10h20.73l1.64,1.83,1.63,1.83v2.94l-1.18,1.2-1.19,1.2H545.56Zm48.83-.28-.61-1.63V412.27l2.11-2.76,2.1-2.75,3.21-1.38,3.21-1.38h23.15l1.11,1.37,1.11,1.38V453H618l-.29-9.87L617.47,433H601.82l-.28,10.25-.28,10.25-3.52.3-3.52.31ZM617,418v-5H602l-.32,3.86-.31,3.85.55,1.44.55,1.44,7.27-.3L617,423Zm25.49,34.73-.49-1.28V429.36l.27-21.95,2.54-.29,2.53-.3,6.9,5,6.89,5,1.3-.5,1.31-.5,6.37-4.55,6.38-4.55,2.25.32,2.26.32,1,21.85v21.87l-1.56,1.38L679.29,454h-8.68l-1.1-2.17-1.09-2.05.31-10.95L669,427l-.34,1h-.35l-2.54,2-2.54,2h-2.56l-3.35-2.08L654,427.84V451.6l-1.2,1.2-1.19,1.2H643l-.48-1.27Zm77.27,0-.76-1.23V412.23l2.17-2.76,2.17-2.77,4.08-1.85L731.5,403l10.09,1h10.55l1.2,1.08,1.66,1.2v4.36l-1.77,1.08-1.31,1.09-10.94.28-11,.29v8.86l5.27.32,5.26.33,1.24,1.13,1.23,1.12V432l-1.23,1.13-1.24,1.12-5.26.33-5.27.33-.29,5-.3,5h22l1.15,1.52,1.15,1.53-.31,3-.31,3H721l-1.23-1.3Zm48.23-.1-1-1.27,1-23.48.27-23.36,5.64-.3,5.64-.29,7.65,10.17,7.65,10.18.29-9.88.29-9.88,4.35-.31,4.35-.31,1.44,1.18,1.43,1.18V451.6l-1.21,1.2-1.2,1.2h-10l-7.3-10.71-7.3-10.6-.25,8.35-.25,8.34-.52,2.25L778.5,454h-10l-.49-1.39Zm59.33.63-4.18-2-2.45-3.57-2.46-3.56-.3-13.77-.31-13.76,2.35-4.77,2.35-4.76,4.59-2.41,4.6-2.41,11.75.29,11.74.29v8.47l-12,.3-12,.3V445h13V433h-6.62l-1.22-1.52L834.94,430l.33-3,.33-3H855v30.71l-11.74.25-11.75.26-4.19-2Zm41.41.14-.73-.71V406.4l1.23-1.2,1.23-1.2h4.83l1.15,1.26.56,1.37V430l-.28,23.49-3.62.3-3.63.29-.74-.71Zm21.77-.65-.5-1.27,1-23.6V404.38l5.61-.29,5.58-.3,7.42,10,7.43,10,.5-8.7.5-8.71.81-1.25.81-1.13h7.88l1.23,1.2,1.23,1.2v45.2l-1.23,1.2-1.23,1.2h-9.66l-3-3.75-3-3.75-4.53-6.93-4.53-6.93-.3,9.38-.3,9.37-1.11,1.31L900,454h-9l-.5-1.27Zm52.26,0-.76-1.22V416.9l1.62-3.2,1.62-3.2,1.61-1.83,1.61-1.84,3.39-1.41,3.39-1.42h21.52l1.19,1.44,1.2,1.44-.33,2.81-.32,2.81-11.75.28-11.75.28V424h10.6l1.2,1.2,1.2,1.2v6.2l-1.2,1.2-1.2,1.2H955v10h23l1.27,1.52,1.26,1.53-.34,3-.34,3H944l-1.22-1.3Zm76.91.63-.67-.66V444.4l1.2-1.2,1.2-1.2H1040v-7h-14l-3.5-3.56-3.5-3.55V412.16l2.54-2.67,2.53-2.68,2.75-1.41,2.74-1.4h21.34l1,1.93,1,1.94v5.73l-1.2,1.2-1.2,1.2h-19.72l.31,3.75.31,3.75,7.6.5,7.6.5,1.54,1.28,1.54,1.28,2.2,5.11,2.19,5.1-.67,3.62-.67,3.61-2.55,3.36-2.54,3.35-3.34,1.4-3.34,1.39h-20.73Zm57.37-1.26-1-1.94V413h-8.6l-1.2-1.2-1.2-1.2v-4.47l.92-1.15,1.39-2,16.25,1,16.24.28,1,1.64,1,1.63-.68,2.73-.69,2.72H1091v38.6l-1.2,1.2-1.2,1.2h-10.53Zm42.73.41-2.72-1.48-1-1.92-1-1.91V406.4l1.2-1.2,1.2-1.2h4.2l1.2,1.2,1.2,1.2V445l7.29-.3,7.75-.29.5-20,.5-20,3.82-.31,3.82-.32,1.43,1.19,1.89,1.19v45.35l-1.66,1.2-1.2.32-13.05,1-12.59,0-2.72-1.48Zm44.43.32-1.2-1.2V407.87l1-1.94,1-1.93h24.2l3.91,1.17,3.92,1.18,3,3.43,3,3.44-.32,16.81-.31,16.81-2.29,2.43-2.28,2.43-3.83,1.15-3.83,1.15H1165.4ZM1191,429V413h-12v32h12Zm23.73,24.38-.73-.71V406.4l1.23-1.2,1.23-1.2h5.83l1.15,1.26.56,1.37V430l-.28,23.49-4.13.3-4.13.29Zm28.31-.44-2-.82-2-2.22-2-2.23V411.92l3.8-3.77,3.77-3.77,11.86-.33,11.87-.33,4.09,2.08,4.08,2.09,1,1.93.49,1.93v36.52l-2.15,2.81-2.69,1.92-14.06,1H1245l-2-1.06Zm24-24.06V416.72l-9-.28-9-.28V441.6l9-.28,9-.28ZM78.63,401.22,67.17,389.45l-5.36-8-5.37-8L51,362.5l-5.41-11L42.1,339.3l-3.51-12.19-1.29-6.8L36,313.5l1-19.62.07-19.7L39.7,263l2.63-11.16,2.61-7.78,2.61-7.77,4-8.48,4-8.47,6.56-9.89,6.56-9.89,10.52-10.89L89.7,177.8l7.58-5.71,7.57-5.7,7.71-4.81,7.72-4.81,9.17-4,9.17-4L149.68,146l11-2.8,6.05-.69,6-.68,1.07,2,1.07,2,.11,5.35.11,5.35-.66,3.49-.66,3.49,2.57,2.41,2.57,2.42v13.37l-.58,1.5-.57,1.5-5.53,2.7-5.52,2.71-5.3,5.29-5.3,5.3-3.11,6.33L150,213.38l-1.17,6.33L147.62,226l1.2,7,1.2,7,2,4.12,2,4.13v2.35l-6.35,11-6.35,11-2.47,3.33-2.47,3.33-4.06,1.09-4.06,1.09-2.12,3-2.12,3,1,2.71v3.34l2,3.28,2,3.27v3.67l-1.2,1.2-1.2,1.2H111.18l-.4,5.75-.39,5.75.37,1.15.37,1.15,4.58,1.15,4.59,1.15,2.8,1.45,2.81,1.45,2,4.63,2,4.62v3.57l-6.49,9.7L117,357.23l.55.88.54.89h19.74l1.58,3.15,1.57,3.16v4.38l-1.83,1.66L137.34,373H120v3.84l-.61,1.58-.6,1.58H130.6l1.2,1.2,1.2,1.2v5.36L131.51,389l-1.5,1.24-9.74-.36-9.75-.37-1.93,3.59-1.93,3.58.64,1.67.64,1.66h14.65l1.2,1.2,1.21,1.2v3.25l-2.41,2.25-2.41,2.26-11.42-.7-11.42-.69-1.91,2.11L93.51,413H90.08ZM91,387.14v-1.85l3.5-4.47,3.5-4.47,1-4-1-3.93,1-7.16v-7.17l.57-2.75,1-2.75-3-3.15-3-3.15-1-3.43L92,335.39l1-8.5v-8.51l.42-9.68L94.2,299l2.66-3.5L99.53,292l3.89-1.72,3.89-1.71.49-4.33.49-4.32,3.15-4.92,3.16-4.92,3.72-2.45L122,265.2l2.74-1.67,2.73-1.68,2-4,2-4-1.12-4.18-1.13-4.18.68-14.54.67-14.55,3-8.9,3-8.91,3.07-4.59,3.08-4.6,7-7.16,7-7.16L151,177l-5.79,2H144l-13.62,6.52L116.72,192l-8,5.89-8,5.88-7,6.85-7,6.84L81.35,224l-5.27,6.5-2.69,4.07-2.69,4.07-3.34,6.43L64,251.5l-3,8-3,8-2.51,10.29L53,288.09l-.64,10.2-.64,10.21L53,316l1.28,7.5,1.81,7,1.81,7L61,345l3.11,7.5,3.82,7,3.82,7L74.9,371l3.15,4.5,5.49,6.75L89,389h2v-1.86Zm195,23.67-1.88-2.07-11.4.32-11.4.32-2-2.62-2-2.63,1.13-2.12,1.14-3,6.71,1H273l1.36-1,1.35-.86-.71-2.37-.71-2.38L273,391.2,271.58,389l-9,.58-9,.59-2-1.8L250,386.57v-4.33l1.29-1.06,1.29-1.07,6-.31,6-.3-.85-3.25-.85-3.25H245.11l-1.55-2.22L242,368.55v-3.24l1.57-3.16,1.58-3.15H266v-2.13l-7.12-10-6.66-10,1.38-4.18,1.38-4.18,2.35-2.8,2.35-2.79,4.18-1.05,4.18-1.06,2.25-.94,1.71-.94,1-4.28v-4.27l-1.09-2.25-.6-2.13H256.68l-1.57-1.69L254,302.74v-1.81l1.54-3.27,1.46-3.28,1-4.19V286.6L255.67,284l-2.33-2.62L249.2,280l-4.15-1.31-8-13.48-8-13.47,1-1.69v-2.3l1.12-3.05,1.58-3,1.41-4.65.89-4.65,1-5.52v-5.51l-1.84-6.65-1.85-6.65-3.21-5-3.21-5-4.35-4-4.35-4-4.35-2.19-4.35-2.19-1.75-1.54L205,182.57V168.51l1.87-2.06,1.87-2.07.59-2.53.6-2.53-3.47-2.76L203,153.8v-2.93l-3-2.17-2-2.18v-4.7l1-.56,1.46-.56,10.47,1.12L221.39,143l9.66,2.51,9.66,2.51,7.67,3,7.66,3,10.11,5.52,10.12,5.51,8.41,6.31,8.41,6.32,10,10.38,10,10.38,5.31,7.72,5.3,7.72,4.55,8.75,4.55,8.75,2.94,7.39,2.94,7.4,2.4,9.6,2.4,9.61,1.19,10.5,1.19,10.5-.57,15-.57,15-1.62,8.85-1.61,8.85L338,344.49l-3.41,10.41-5,9.53-5,9.53-5.61,8.6-5.61,8.61L302.81,402l-10.59,11h-4.37Zm11.5-28.45,5.13-6.53,4.27-6.72,4.28-6.73,3.1-6.5,3.1-6.5,2.73-6.5,2.73-6.5,1.74-7,1.75-7,1.24-7.47,1.24-7.47-.66-9.6-.66-9.6-2.89-11.68-2.88-11.67-5.11-11.29-5.1-11.29-3.72-6-3.73-6-4.12-5.48-4.11-5.49-7.69-7.72L280.43,204l-8-6-8-6-13.21-6.39L238,179.16,233.69,178l-4.35-1.21-.4.41-.4.4,4,3.2,4,3.21,4.12,6.07,4.13,6.08,2.72,6.13,2.73,6.14,1.14,7,1.13,7,.58,9.68.58,9.67-1.26,6.11L251.12,254l2.45,4.49,2.45,4.48,5.27,3.19,5.26,3.19,4,5.7L274,280.7l1,3.84v3.84l4.74,2.5,5.08,2.5,1.75,3.29,1.76,3.29.71,17.21.72,17.21-1.15,4.24-1.14,4.23-3.41,2.73-3.42,2.72,1.11,1.33L282,351l1,12.39v12.39l2.8,3,2.57,3.05,1.16,3.53,1.16,3.64h1.67l5.12-6.64Zm-159.81,27-.67-.66V402.4l1.2-1.2,1.2-1.2H243.69l1.66,1.83,1.65,1.83v3.94l-1.2,1.2-1.2,1.2H138.33Zm8-21-.67-.66V382.4l1.2-1.2,1.2-1.2h88.46l1.57,1.57,1.57,1.57v3.46l-1.2,1.2-1.2,1.2H146.33ZM141.73,337l.29-11,5.33,1,5.28.05,1,1.42.95,1.42-.43,3.62-.43,3.63-3.1,5.43L147.47,348h-6Zm90.52,5.09L229,336.14V328l2.57-1,2.56-1h5.63l1.16,1.4,1.16,1.4-.29,9.35-.29,9.35-3,.27-3,.28Zm124.32-.66L355,339.86v-39.7L356.21,289l2.2,4,2.2,4,3.44,3.63,3.45,3.62,5.28,2.38,5.28,2.37H458.6l1.2,1.2,1.2,1.2v27.73l-1,1.94-1,1.93H358.14ZM142,322l-2-2v-8l2-2,2-2h7.65l2.18,2.31,2.17,2.32v7.22l-2.63,2.08L150.73,324H144Zm88.07-.63L228,318.73v-6.29l1.56-2.22,1.55-2.22h9.74l2.08,2.63,2.07,2.64v4.58l-2.59,3.07L239.82,324h-7.67Zm-96.63-17.44-1.88-2.07,2-3.68,2-3.68,5.83-.3,5.84-.3,1.41,1.17,1.42,1.17v6.62l-1.57,1.57L146.86,306H135.31Zm22.85.87-1.29-1v-6.62l.61-1.58.6-1.58H187.6l1.2,1.2,1.2,1.2v6.37l-2.68,1.55-2.23.68-13.52,1H158l-1.75-1.2Zm40.27-1L195,301.56V298l2-2,2-2h26.13l1.94,1,1.93,1v7.53l-1.2,1.2-1.2,1.2H198.11Zm40-.67-1.23-1.48.32-3.31L236,295h15v9l-6.59.29-6.6.29Zm-52.93-82.94-3.38-1.66-2.87-4-2.41-4V197.15l2.39-3.53,2.4-3.52,4.23-2,4.23-2.05h7.23l3.19,1.33,3.18,1.33,3.52,4.11,3.52,4.11.62,3.69.62,3.68-1.06,4L208,212.16l-2.52,3-2.52,3-2.75,1.43L197.46,221l-5.12,1H187l-3.38-1.83Zm14.16-7.62,3-2.48,1.26-3,1.25-3L202,201l-1.27-3.06-3.2-2.45L194.33,193h-5.51L186,194.67l-2.83,1.67-1.08,2.38L181,201.11l1,3.07v3.2l.93,2.39,1.33,2.39,2.39,1.33L189,214l3.17,1,2.66,0,2.95-2.48ZM639.54,361,639,343l-51.9,1H535.22l-1.34-2.25-.88-1.11V311.13l.88-1.12,1.34-2,51.91,1H639V272l-52,1-51.47-.51-1.28-.84-1.29-.83V240.47l1.24-1.23,1.23-1.24H639V202l-54.15-1H530.66l-5.46,1.91-5.45,2-3.86,2.79-3.85,2.8-2.78,4-2.78,4-1.9,5.19-1.9,5.2-1.07,6.9L500,242.76v40.92l4.11,2.11,3.56,2.1,5.35,2.67-6,2.67-3,1.66-3,1.65v39.84l.59,7.5,1.17,7.5,2.71,6,2.72,6,4.93,4.93,4.92,4.92,6,2.78,6,2,55,1,55,.05-.51-18Zm127,15,4.5-2.34,4.17-4,4.17-4L781.9,360l2.52-5.62,1.05-6.5.53-6.5,1-15.92V309.55L785.42,303l-1.12-6.58-2.35-5-2.34-5-3.07-3.7L773.47,279l-6.69-3.29L760.09,272l-38.69,1-38.65-.3-1.15-1.4-1.16-1.39.29-16,.29-16,52.77,1,53.21-.26V202.46l-28.75-.6-28.76-.59L701,202l-28.51.73-4.62,2.08-4.62,2.08-4.19,3.74-4.18,3.74-2.44,4.12L650,222.61l-1.49,4.86L647,232.33v48.48l1.42,5.28,1.43,5.29,3.23,5.28,3.24,5.29,6.94,3.52,6.93,3.53H749.6l1.2,1.2,1.2,1.2v29.2l-1.2,1.2-1.2,1.2H647v35l56.24,1H762ZM863,308.63V238l16.29,1H896V200l-51.71,1H792l1,18.61V237l15.77,1H825l1,70.63V379h36Zm108,66.5,2-3.75,2.29-6,2.29,5.34,1.71,4.07L981,378l33.75,1H1049V200l-19.21,1H1010l1,69.79-.26,69.52-1.13,1.35-1.13,1.34H941.26l-1.13-1.34L939,340.31V201l-18.21,1L902,201.73V239h3V340.38l1,6.29,1.48,6.28,2.14,4.22,2.14,4.21,3,3.78,3,3.77,4.56,3.13,4.55,3.14,4.6,1.79,4.59,1,16.5,1H969l2-3.87Zm197.77,0,6.78-3.21,5.14-5.27,5.13-5.27,3.09-6.52,3-6.52V231.5l-2.67-5.72-2.67-5.72-4.77-5.11-4.77-5.12-4.3-2.53-4.31-2.53-6-1.89-6-1.88H1056V378l52.79,1H1162Zm-81.66-33.52-1.15-1.36,1-51V238l33.42,1,33.8-.26,1.39,1.13L1157,241v99.63l-1.22,1.19-1.21,1.19h-66.28ZM1140,296.88V267l-18.71,1H1103v58l18.29,1H1140Zm92-6.43V201.9l-7.19,6-7.18,6.05-1.63,1.51-1.63-1.51-7.18-6.05-7.19-6V379h32Zm114.64,87.33,3.4-1.1,3-1.35,3.06-1.36,3.92-3.12,3.93-3.11,3.68-5.19,3.68-5.19,2.09-6.21,2.55-6.21V296.25l-4-1.7-3.57-1.7-4.59-2.22,5.23-2.22,3.21-2,2.75-2,1-24v-24l-1.82-5-1.34-5-2.56-5-2.56-5-4.66-4.29-4.66-4.3-6.68-3.16L1345,201l-35,1h-35l-5.5-.09-5.5,1.18-4.78,2.57-4.77,2.57-4.54,4.85-4.54,4.85-3.19,6.73-4.22,6.72,1,56.5v56.5l1.12,6.34,1.69,6.34,3.8,5.7,3.81,5.7,4.31,3,4.31,3,2.5,1.14,2.5,1.15,3,1,3,.27,37.1,1h37.1l3.4-1.22Zm-73.49-36.13-1.15-1.36,1-51V238l32.92,1,33.3-.26,1.39,1.13L1342,241v99.63l-1.22,1.19-1.21,1.19H1274.3ZM1325,296.88V267l-18.21,1H1289v58l17.79,1H1325ZM201.57,43.46l1.28-1.54-1.09-1.1-1.09-1.09-1.43.55-1.42.55-.55,2.09L196.73,45h3.56ZM700,250" transform="translate(-9.45 -12)"/></g></svg>