<?xml version="1.0" encoding="UTF-8" standalone="no"?>
<svg
   xmlns:dc="http://purl.org/dc/elements/1.1/"
   xmlns:cc="http://creativecommons.org/ns#"
   xmlns:rdf="http://www.w3.org/1999/02/22-rdf-syntax-ns#"
   xmlns:svg="http://www.w3.org/2000/svg"
   xmlns="http://www.w3.org/2000/svg"
   width="305.10001pt"
   height="96pt"
   viewBox="0 0 107.63252 33.866664"
   version="1.1"
   id="svg3739">
  <defs
     id="defs3733" />
  <metadata
     id="metadata3736">
    <rdf:RDF>
      <cc:Work
         rdf:about="">
        <dc:format>image/svg+xml</dc:format>
        <dc:type
           rdf:resource="http://purl.org/dc/dcmitype/StillImage" />
        <dc:title></dc:title>
      </cc:Work>
    </rdf:RDF>
  </metadata>
  <g
     id="layer6"
     style="display:none">
    <rect
       style="fill:#008000;stroke-width:0.26458335"
       id="rect5934"
       width="112.44792"
       height="38.364586"
       x="-2.6458335"
       y="-3.1750002" />
  </g>
  <g
     id="layer2"
     style="display:none"
     transform="translate(0,-251.88338)">
    <g
       id="g5845">
      <path
         id="path3800"
         d="m 0.2728708,252.29676 v 33.07291 H 107.42912 v -33.07291 z"
         style="fill:none;stroke:#000000;stroke-width:0.26458335px;stroke-linecap:butt;stroke-linejoin:miter;stroke-opacity:1" />
      <path
         id="path3804"
         d="M 2.9187009,282.72384 V 254.94259 H 104.78329 v 27.78125 z"
         style="fill:none;stroke:#000000;stroke-width:0.26458335px;stroke-linecap:butt;stroke-linejoin:miter;stroke-opacity:1" />
      <path
         id="path3949"
         d="m 4.2416209,274.25717 v -4.23333 H 14.56037 v -3.175 H 6.8874509"
         style="fill:none;stroke:#000000;stroke-width:0.26458335px;stroke-linecap:butt;stroke-linejoin:miter;stroke-opacity:1" />
      <path
         id="path3951"
         d="m 7.6812009,274.25717 v -0.52916 H 14.82495"
         style="fill:none;stroke:#000000;stroke-width:0.26458335px;stroke-linecap:butt;stroke-linejoin:miter;stroke-opacity:1" />
      <path
         id="path3953"
         d="m 17.99995,270.02384 v -3.175"
         style="fill:none;stroke:#000000;stroke-width:0.26458335px;stroke-linecap:butt;stroke-linejoin:miter;stroke-opacity:1" />
      <path
         id="path4255"
         d="m 4.2416209,274.25717 v 7.14375 H 103.46037 v -2.91041 l -1.05833,-0.52917 1.05833,-0.52917 v -3.175 H 7.6812009 v -0.26458"
         style="fill:none;stroke:#000000;stroke-width:0.26458335px;stroke-linecap:butt;stroke-linejoin:miter;stroke-opacity:1" />
      <path
         id="path4263"
         d="m 21.9687,273.72801 h 10.05417 v -3.70417 H 21.70412 v -3.175 h 10.31875 v -3.70417 H 21.70412 v -3.175 h 10.31875 v -3.70416 H 21.70412"
         style="fill:none;stroke:#000000;stroke-width:0.26458335px;stroke-linecap:butt;stroke-linejoin:miter;stroke-opacity:1" />
      <path
         id="path4269"
         d="m 18.52912,269.75926 v -4.23334 l 1.05833,-0.52916 -1.05833,-0.52917 v -4.23333"
         style="fill:none;stroke:#000000;stroke-width:0.26458335px;stroke-linecap:butt;stroke-linejoin:miter;stroke-opacity:1" />
      <path
         id="path4271"
         d="m 22.23329,273.72801 c -0.08814,0.004 -0.176447,0.004 -0.26459,0 -0.962797,-0.0411 -1.87995,-0.54779 -2.490546,-1.29334 -0.610595,-0.74555 -0.923929,-1.71206 -0.949034,-2.67541 -0.0023,-0.0882 -0.0023,-0.17641 0,-0.26459"
         style="fill:none;stroke:#000000;stroke-width:0.26458335px;stroke-linecap:butt;stroke-linejoin:miter;stroke-opacity:1" />
      <path
         id="path4275"
         d="m 18.52912,260.49884 c -0.002,-0.0882 -0.002,-0.1764 0,-0.26458 0.02068,-0.93255 0.272211,-1.87649 0.822988,-2.6293 0.275388,-0.37641 0.623406,-0.70143 1.02603,-0.93683 0.402624,-0.23541 0.860145,-0.37989 1.325982,-0.40262 0.08812,-0.004 0.176457,-0.004 0.26458,0"
         style="fill:none;stroke:#000000;stroke-width:0.26458335px;stroke-linecap:butt;stroke-linejoin:miter;stroke-opacity:1" />
      <path
         id="path4283"
         d="m 46.83954,259.96967 v -3.70416 H 56.8937 v 3.70416 h -3.175 v 13.75834 h -3.70416 v -13.75834 z"
         style="fill:none;stroke:#000000;stroke-width:0.26458335px;stroke-linecap:butt;stroke-linejoin:miter;stroke-opacity:1" />
      <path
         id="path4293"
         d="m 57.68745,269.75926 v -9.78959 h -0.26458 v -3.70416 h 3.70417 v 13.75833 h 6.87916 v -13.75833 h 3.70417 v 17.4625 l -6.614584,-10e-6 -0.529166,-1.32291 -0.529167,1.32291 -2.645833,10e-6"
         style="fill:none;stroke:#000000;stroke-width:0.26458335px;stroke-linecap:butt;stroke-linejoin:miter;stroke-opacity:1" />
      <path
         id="path4313"
         d="m 61.6562,273.72801 c -0.08815,0.003 -0.176427,0.003 -0.26458,0 -0.995477,-0.037 -1.959803,-0.50935 -2.629595,-1.24673 -0.669792,-0.73737 -1.045297,-1.72628 -1.074575,-2.72202 -0.0026,-0.0882 -0.0026,-0.17642 0,-0.26459"
         style="fill:none;stroke:#000000;stroke-width:0.26458335px;stroke-linecap:butt;stroke-linejoin:miter;stroke-opacity:1" />
      <path
         id="path4321"
         d="m 81.76454,273.72801 h -9.525 v -17.4625 h 9.525"
         style="fill:none;stroke:#000000;stroke-width:0.26458335px;stroke-linecap:butt;stroke-linejoin:miter;stroke-opacity:1" />
      <path
         id="path4323"
         d="m 75.41454,270.02384 h 6.61458 v -10.05417 h -6.61458 z"
         style="fill:none;stroke:#000000;stroke-width:0.26458335px;stroke-linecap:butt;stroke-linejoin:miter;stroke-opacity:1" />
      <path
         id="path4325"
         d="m 85.73329,260.23426 v 9.525"
         style="fill:none;stroke:#000000;stroke-width:0.26458335px;stroke-linecap:butt;stroke-linejoin:miter;stroke-opacity:1" />
      <path
         id="path4327"
         d="m 81.49995,273.72801 c 0.08817,0.003 0.176424,0.003 0.26459,0 1.029568,-0.0332 2.040697,-0.47127 2.76909,-1.19966 0.728393,-0.72839 1.166447,-1.73952 1.19966,-2.76909 0.0028,-0.0882 0.0028,-0.17642 0,-0.26459"
         style="fill:none;stroke:#000000;stroke-width:0.26458335px;stroke-linecap:butt;stroke-linejoin:miter;stroke-opacity:1" />
      <path
         id="path4331"
         d="m 85.73329,260.49884 c 0.0028,-0.0882 0.0028,-0.17642 0,-0.26458 -0.03321,-1.02957 -0.471266,-2.0407 -1.199659,-2.76909 -0.728394,-0.72839 -1.739523,-1.16645 -2.769091,-1.19966 -0.08817,-0.003 -0.176424,-0.003 -0.26459,0"
         style="fill:none;stroke:#000000;stroke-width:0.26458335px;stroke-linecap:butt;stroke-linejoin:miter;stroke-opacity:1" />
      <path
         id="path4337"
         d="m 86.26245,273.72801 v -17.4625 h 3.17501 v 17.4625 z"
         style="fill:none;stroke:#000000;stroke-width:0.26458335px;stroke-linecap:butt;stroke-linejoin:miter;stroke-opacity:1" />
      <path
         id="path4339"
         d="m 89.96662,269.75926 v -9.525"
         style="fill:none;stroke:#000000;stroke-width:0.26458335px;stroke-linecap:butt;stroke-linejoin:miter;stroke-opacity:1" />
      <path
         id="path4347"
         d="m 103.46037,260.23426 v 4.23333 l -1.05833,0.52917 1.05833,0.52916 v 4.23334"
         style="fill:none;stroke:#000000;stroke-width:0.26458335px;stroke-linecap:butt;stroke-linejoin:miter;stroke-opacity:1" />
      <path
         id="path4349"
         d="m 100.02079,270.02384 v -10.05417 h -6.61458 v 10.05417 z"
         style="fill:none;stroke:#000000;stroke-width:0.26458335px;stroke-linecap:butt;stroke-linejoin:miter;stroke-opacity:1" />
      <path
         id="path4351"
         d="M 99.756194,273.72801 H 93.67079"
         style="fill:none;stroke:#000000;stroke-width:0.26458335px;stroke-linecap:butt;stroke-linejoin:miter;stroke-opacity:1" />
      <path
         id="path4353"
         d="m 93.67079,256.26551 h 6.085414"
         style="fill:none;stroke:#000000;stroke-width:0.26458335px;stroke-linecap:butt;stroke-linejoin:miter;stroke-opacity:1" />
      <path
         id="path4355"
         d="m 93.93537,273.72801 c -0.08815,0.003 -0.176427,0.003 -0.26458,0 -0.995477,-0.037 -1.959803,-0.50935 -2.629595,-1.24673 -0.669792,-0.73737 -1.045297,-1.72628 -1.074575,-2.72202 -0.0026,-0.0882 -0.0026,-0.17642 0,-0.26459"
         style="fill:none;stroke:#000000;stroke-width:0.26458335px;stroke-linecap:butt;stroke-linejoin:miter;stroke-opacity:1" />
      <path
         id="path4359"
         d="m 99.491614,273.72801 c 0.08816,0.003 0.176434,0.003 0.26459,0 0.995476,-0.037 1.959806,-0.50935 2.629596,-1.24673 0.66979,-0.73737 1.04529,-1.72628 1.07457,-2.72202 0.003,-0.0882 0.003,-0.17642 0,-0.26459"
         style="fill:none;stroke:#000000;stroke-width:0.26458335px;stroke-linecap:butt;stroke-linejoin:miter;stroke-opacity:1" />
      <path
         id="path4363"
         d="m 103.46037,260.49884 c 0.003,-0.0882 0.003,-0.17641 0,-0.26458 -0.0293,-0.99574 -0.40478,-1.98465 -1.07457,-2.72202 -0.66979,-0.73738 -1.63412,-1.20968 -2.629596,-1.24673 -0.08816,-0.003 -0.176434,-0.003 -0.26459,0"
         style="fill:none;stroke:#000000;stroke-width:0.26458335px;stroke-linecap:butt;stroke-linejoin:miter;stroke-opacity:1" />
      <path
         id="path4367"
         d="m 89.96662,260.49884 c -0.0026,-0.0882 -0.0026,-0.17641 0,-0.26458 0.02928,-0.99574 0.404782,-1.98465 1.074574,-2.72203 0.669792,-0.73737 1.634119,-1.20967 2.629596,-1.24672 0.08815,-0.003 0.176427,-0.003 0.26458,0"
         style="fill:none;stroke:#000000;stroke-width:0.26458335px;stroke-linecap:butt;stroke-linejoin:miter;stroke-opacity:1" />
      <path
         id="path4457"
         d="m 20.3812,280.87176 h -1.32291 v -3.96875 h -1.05834 v -0.79375 h 3.43959 v 0.79375 H 20.3812 Z"
         style="fill:none;stroke:#000000;stroke-width:0.26458335px;stroke-linecap:butt;stroke-linejoin:miter;stroke-opacity:1" />
      <path
         id="path4467"
         d="m 24.34995,276.10926 h 2.11667 v 0.79375 h -2.64583 v 1.05833 h 1.32291 v 1.05833 h -1.32291 v 1.05834 h 2.64583 v 0.79375 h -3.70417 v -3.43959"
         style="display:inline;fill:none;stroke:#000000;stroke-width:0.26458335px;stroke-linecap:butt;stroke-linejoin:miter;stroke-opacity:1" />
      <path
         id="path4526"
         d="m 22.76245,277.69676 c -0.0093,-0.0879 -0.0093,-0.17672 0,-0.26459 0.03962,-0.37252 0.251227,-0.717 0.546167,-0.94797 0.29494,-0.23097 0.667384,-0.35259 1.041333,-0.37494 0.08809,-0.005 0.176498,-0.005 0.26459,0"
         style="fill:none;stroke:#000000;stroke-width:0.26458335px;stroke-linecap:butt;stroke-linejoin:miter;stroke-opacity:1" />
      <path
         id="path4530"
         d="m 15.35412,280.87176 h -2.11667 v -1.05834 h 2.38125 v -0.79375 h -1.05833"
         style="fill:none;stroke:#000000;stroke-width:0.26458335px;stroke-linecap:butt;stroke-linejoin:miter;stroke-opacity:1" />
      <path
         id="path4532"
         d="m 15.6187,277.96134 h -1.05833 v -0.79375 h 2.38125 v -1.05833 h -2.11667"
         style="fill:none;stroke:#000000;stroke-width:0.26458335px;stroke-linecap:butt;stroke-linejoin:miter;stroke-opacity:1" />
      <path
         id="path4554"
         d="m 27.52495,277.16759 v 3.70417 h 1.05834 v -2.11667 h 1.5875 v 2.11667 h 1.05833 v -4.7625 h -2.38125"
         style="fill:none;stroke:#000000;stroke-width:0.26458335px;stroke-linecap:butt;stroke-linejoin:miter;stroke-opacity:1" />
      <path
         id="path4556"
         d="m 28.58329,277.96134 h 1.5875 v -1.05833 h -1.5875 z"
         style="fill:none;stroke:#000000;stroke-width:0.26458335px;stroke-linecap:butt;stroke-linejoin:miter;stroke-opacity:1" />
      <path
         id="path4558"
         d="m 27.52495,277.43217 c -0.01163,-0.0877 -0.01163,-0.1769 0,-0.26458 0.04024,-0.30331 0.222074,-0.57894 0.467579,-0.76155 0.245506,-0.1826 0.550044,-0.27649 0.855341,-0.29678 0.08806,-0.006 0.176516,-0.006 0.26458,0"
         style="fill:none;stroke:#000000;stroke-width:0.26458335px;stroke-linecap:butt;stroke-linejoin:miter;stroke-opacity:1" />
      <path
         id="path4562"
         d="m 33.34579,280.87176 h -1.05834 v -4.7625 l 1.85209,1.32291 1.85208,-1.32291 v 4.7625 h -1.05833 v -2.64584 l -0.79375,0.52917 -0.79375,-0.52917 z"
         style="fill:none;stroke:#000000;stroke-width:0.26458335px;stroke-linecap:butt;stroke-linejoin:miter;stroke-opacity:1" />
      <path
         id="path4467-6"
         d="m 41.28328,276.10926 h 2.11667 v 0.79375 h -2.64583 v 1.05833 h 1.32291 v 1.05833 h -1.32291 v 1.05834 h 2.64583 v 0.79375 h -3.70417 v -3.43959"
         style="display:inline;fill:none;stroke:#000000;stroke-width:0.26458335px;stroke-linecap:butt;stroke-linejoin:miter;stroke-opacity:1" />
      <path
         id="path4526-1"
         d="m 39.69578,277.69676 c -0.0093,-0.0879 -0.0093,-0.17672 0,-0.26459 0.03962,-0.37252 0.251227,-0.717 0.546167,-0.94797 0.29494,-0.23097 0.667384,-0.35259 1.041333,-0.37494 0.08809,-0.005 0.176498,-0.005 0.26459,0"
         style="display:inline;fill:none;stroke:#000000;stroke-width:0.26458335px;stroke-linecap:butt;stroke-linejoin:miter;stroke-opacity:1" />
      <path
         id="path4467-7"
         d="m 62.71453,276.10926 h 2.11667 v 0.79375 h -2.64583 v 1.05833 h 1.32291 v 1.05833 h -1.32291 v 1.05834 h 2.64583 v 0.79375 h -3.70417 v -3.43959"
         style="display:inline;fill:none;stroke:#000000;stroke-width:0.26458335px;stroke-linecap:butt;stroke-linejoin:miter;stroke-opacity:1" />
      <path
         id="path4526-12"
         d="m 61.12703,277.69676 c -0.0093,-0.0879 -0.0093,-0.17672 0,-0.26459 0.03962,-0.37252 0.251227,-0.717 0.546167,-0.94797 0.29494,-0.23097 0.667384,-0.35259 1.041333,-0.37494 0.08809,-0.005 0.176498,-0.005 0.26459,0"
         style="display:inline;fill:none;stroke:#000000;stroke-width:0.26458335px;stroke-linecap:butt;stroke-linejoin:miter;stroke-opacity:1" />
      <path
         id="path4907"
         d="m 15.08954,280.87176 c 0.088,0.007 0.176585,0.007 0.26458,0 0.299662,-0.0247 0.592721,-0.13574 0.829011,-0.32167 0.23629,-0.18594 0.414111,-0.44678 0.493909,-0.73667 0.07099,-0.2579 0.06438,-0.53412 0,-0.79375 -0.06382,-0.25735 -0.185581,-0.50283 -0.368003,-0.69524 -0.182423,-0.19241 -0.427366,-0.32922 -0.690337,-0.36309 -0.08771,-0.0113 -0.17687,-0.0113 -0.26458,0"
         style="fill:none;stroke:#000000;stroke-width:0.26458335px;stroke-linecap:butt;stroke-linejoin:miter;stroke-opacity:1" />
      <path
         id="path4915"
         d="m 14.82495,279.01967 c -0.08771,0.0113 -0.17687,0.0113 -0.26458,0 -0.262969,-0.0339 -0.507911,-0.17068 -0.690331,-0.36309 -0.182421,-0.19241 -0.304184,-0.43789 -0.367999,-0.69524 -0.06438,-0.25963 -0.07099,-0.53585 0,-0.79375 0.0798,-0.28989 0.257617,-0.55073 0.493906,-0.73666 0.236288,-0.18594 0.529345,-0.29701 0.829004,-0.32167 0.088,-0.007 0.176592,-0.007 0.26459,0"
         style="fill:none;stroke:#000000;stroke-width:0.26458335px;stroke-linecap:butt;stroke-linejoin:miter;stroke-opacity:1" />
      <path
         id="path4530-2"
         d="m 70.65204,280.87176 h -2.11667 v -1.05834 h 2.38125 v -0.79375 h -1.05833"
         style="display:inline;fill:none;stroke:#000000;stroke-width:0.26458335px;stroke-linecap:butt;stroke-linejoin:miter;stroke-opacity:1" />
      <path
         id="path4532-1"
         d="m 70.91662,277.96134 h -1.05833 v -0.79375 h 2.38125 v -1.05833 h -2.11667"
         style="display:inline;fill:none;stroke:#000000;stroke-width:0.26458335px;stroke-linecap:butt;stroke-linejoin:miter;stroke-opacity:1" />
      <path
         id="path4907-8"
         d="m 70.38746,280.87176 c 0.08799,0.007 0.176585,0.007 0.26458,0 0.299662,-0.0247 0.592721,-0.13574 0.829011,-0.32167 0.23629,-0.18594 0.414111,-0.44678 0.493909,-0.73667 0.07099,-0.2579 0.06438,-0.53412 0,-0.79375 -0.06381,-0.25735 -0.185581,-0.50283 -0.368003,-0.69524 -0.182423,-0.19241 -0.427366,-0.32922 -0.690337,-0.36309 -0.08771,-0.0113 -0.17687,-0.0113 -0.26458,0"
         style="display:inline;fill:none;stroke:#000000;stroke-width:0.26458335px;stroke-linecap:butt;stroke-linejoin:miter;stroke-opacity:1" />
      <path
         id="path4915-2"
         d="m 70.12287,279.01967 c -0.08771,0.0113 -0.17687,0.0113 -0.26458,0 -0.262969,-0.0339 -0.507911,-0.17068 -0.690331,-0.36309 -0.182421,-0.19241 -0.304184,-0.43789 -0.367999,-0.69524 -0.06438,-0.25963 -0.07099,-0.53585 0,-0.79375 0.0798,-0.28989 0.257617,-0.55073 0.493906,-0.73666 0.236288,-0.18594 0.529345,-0.29701 0.829004,-0.32167 0.088,-0.007 0.176592,-0.007 0.26459,0"
         style="display:inline;fill:none;stroke:#000000;stroke-width:0.26458335px;stroke-linecap:butt;stroke-linejoin:miter;stroke-opacity:1" />
      <path
         id="path4965"
         d="m 44.45829,280.87176 v -4.7625 h 1.05833 l 1.5875,2.11666 v -2.11666 h 1.05833 v 4.7625 h -1.05833 l -1.5875,-2.38125 v 2.38125 z"
         style="fill:none;stroke:#000000;stroke-width:0.26458335px;stroke-linecap:butt;stroke-linejoin:miter;stroke-opacity:1" />
      <path
         id="path4967"
         d="m 51.07287,276.10926 h 1.85208 v 0.79375 H 50.5437 v 3.175 h 1.32292 v -1.32292 h -0.79375 v -0.79375 h 1.85208 v 2.91042 h -1.85208"
         style="fill:none;stroke:#000000;stroke-width:0.26458335px;stroke-linecap:butt;stroke-linejoin:miter;stroke-opacity:1" />
      <path
         id="path4969"
         d="m 49.22079,277.43217 v 2.11667"
         style="fill:none;stroke:#000000;stroke-width:0.26458335px;stroke-linecap:butt;stroke-linejoin:miter;stroke-opacity:1" />
      <path
         id="path4971"
         d="m 49.22079,277.69676 c -0.01013,-0.0878 -0.01013,-0.17678 0,-0.26459 0.0237,-0.2055 0.103294,-0.40319 0.22123,-0.57314 0.117936,-0.16995 0.27354,-0.3125 0.448402,-0.42302 0.349724,-0.22106 0.768997,-0.31157 1.182448,-0.32675 0.08815,-0.003 0.176426,-0.003 0.26458,0"
         style="fill:none;stroke:#000000;stroke-width:0.26458335px;stroke-linecap:butt;stroke-linejoin:miter;stroke-opacity:1" />
      <path
         id="path4975"
         d="m 51.33745,280.87176 c -0.08815,0.003 -0.176426,0.003 -0.26458,0 -0.413452,-0.0152 -0.832726,-0.1057 -1.182451,-0.32675 -0.174862,-0.11053 -0.330465,-0.25307 -0.448401,-0.42303 -0.117935,-0.16995 -0.197527,-0.36764 -0.221228,-0.57314 -0.01013,-0.0878 -0.01013,-0.17677 0,-0.26458"
         style="fill:none;stroke:#000000;stroke-width:0.26458335px;stroke-linecap:butt;stroke-linejoin:miter;stroke-opacity:1" />
      <path
         id="path4979"
         d="m 53.98329,280.87176 v -4.7625 h 1.32291 v 4.7625 z"
         style="fill:none;stroke:#000000;stroke-width:0.26458335px;stroke-linecap:butt;stroke-linejoin:miter;stroke-opacity:1" />
      <path
         id="path4965-8"
         d="m 56.36454,280.87176 v -4.7625 h 1.05833 l 1.5875,2.11666 v -2.11666 h 1.05833 v 4.7625 h -1.05833 l -1.5875,-2.38125 v 2.38125 z"
         style="display:inline;fill:none;stroke:#000000;stroke-width:0.26458335px;stroke-linecap:butt;stroke-linejoin:miter;stroke-opacity:1" />
      <path
         id="path4979-6"
         d="m 87.58537,280.87176 v -4.7625 h 1.32291 v 4.7625 z"
         style="display:inline;fill:none;stroke:#000000;stroke-width:0.26458335px;stroke-linecap:butt;stroke-linejoin:miter;stroke-opacity:1" />
      <path
         id="path4457-9"
         d="m 75.67912,280.87176 h -1.32291 v -3.96875 h -1.05834 v -0.79375 h 3.43959 v 0.79375 h -1.05834 z"
         style="display:inline;fill:none;stroke:#000000;stroke-width:0.26458335px;stroke-linecap:butt;stroke-linejoin:miter;stroke-opacity:1" />
      <path
         id="path5122"
         d="m 77.79579,279.81342 v -3.70416 h 1.05833 v 3.96875 h 1.5875 v -3.96875 h 1.32292 v 4.7625 H 79.1187"
         style="fill:none;stroke:#000000;stroke-width:0.26458335px;stroke-linecap:butt;stroke-linejoin:miter;stroke-opacity:1" />
      <path
         id="path5124"
         d="m 79.38329,280.87176 c -0.08807,0.006 -0.176523,0.006 -0.26459,0 -0.305297,-0.0203 -0.609833,-0.11418 -0.855337,-0.29679 -0.245503,-0.18261 -0.427336,-0.45824 -0.467573,-0.76155 -0.01163,-0.0877 -0.01163,-0.1769 0,-0.26458"
         style="fill:none;stroke:#000000;stroke-width:0.26458335px;stroke-linecap:butt;stroke-linejoin:miter;stroke-opacity:1" />
      <path
         id="path5128"
         d="m 84.93954,276.10926 h -2.11667 v 4.7625 h 2.11667"
         style="fill:none;stroke:#000000;stroke-width:0.26458335px;stroke-linecap:butt;stroke-linejoin:miter;stroke-opacity:1" />
      <path
         id="path5130"
         d="m 84.14579,280.07801 h 1.32291 v -3.175 h -1.32291 z"
         style="fill:none;stroke:#000000;stroke-width:0.26458335px;stroke-linecap:butt;stroke-linejoin:miter;stroke-opacity:1" />
      <path
         id="path5132"
         d="m 86.52704,279.81342 v -2.64583"
         style="fill:none;stroke:#000000;stroke-width:0.26458335px;stroke-linecap:butt;stroke-linejoin:miter;stroke-opacity:1" />
      <path
         id="path5134"
         d="m 84.67495,280.87176 c 0.08816,0.003 0.176431,0.003 0.26459,0 0.345638,-0.0123 0.697069,-0.0758 0.996664,-0.24858 0.149798,-0.0864 0.284966,-0.19976 0.389243,-0.33771 0.104276,-0.13796 0.177034,-0.30087 0.201593,-0.47205 0.01257,-0.0876 0.01257,-0.17698 0,-0.26458"
         style="fill:none;stroke:#000000;stroke-width:0.26458335px;stroke-linecap:butt;stroke-linejoin:miter;stroke-opacity:1" />
      <path
         id="path5138"
         d="m 86.52704,277.43217 c 0.01257,-0.0876 0.01257,-0.17698 0,-0.26458 -0.02456,-0.17117 -0.09732,-0.33409 -0.201594,-0.47204 -0.104277,-0.13795 -0.239445,-0.25131 -0.389243,-0.33771 -0.299596,-0.1728 -0.651026,-0.23628 -0.996663,-0.24858 -0.08816,-0.003 -0.176431,-0.003 -0.26459,0"
         style="fill:none;stroke:#000000;stroke-width:0.26458335px;stroke-linecap:butt;stroke-linejoin:miter;stroke-opacity:1" />
      <path
         id="path5142"
         d="m 89.96662,279.81342 v -2.64583"
         style="fill:none;stroke:#000000;stroke-width:0.26458335px;stroke-linecap:butt;stroke-linejoin:miter;stroke-opacity:1" />
      <path
         id="path5146"
         d="m 93.93537,279.81342 v -2.64583"
         style="fill:none;stroke:#000000;stroke-width:0.26458335px;stroke-linecap:butt;stroke-linejoin:miter;stroke-opacity:1" />
      <path
         id="path5148"
         d="M 92.34787,276.10926 H 91.28954"
         style="fill:none;stroke:#000000;stroke-width:0.26458335px;stroke-linecap:butt;stroke-linejoin:miter;stroke-opacity:1" />
      <path
         id="path5150"
         d="m 91.28954,280.87176 h 1.05833"
         style="fill:none;stroke:#000000;stroke-width:0.26458335px;stroke-linecap:butt;stroke-linejoin:miter;stroke-opacity:1" />
      <path
         id="path5152"
         d="m 89.96662,279.54884 c -0.01163,0.0877 -0.01163,0.1769 0,0.26458 0.04024,0.30331 0.222072,0.57894 0.467578,0.76155 0.245505,0.18261 0.550044,0.2765 0.855342,0.29679 0.08806,0.006 0.176516,0.006 0.26458,0"
         style="fill:none;stroke:#000000;stroke-width:0.26458335px;stroke-linecap:butt;stroke-linejoin:miter;stroke-opacity:1" />
      <path
         id="path5156"
         d="m 92.08329,280.87176 c 0.08816,0.003 0.176424,0.003 0.26458,0 0.345638,-0.0123 0.697069,-0.0758 0.996665,-0.24858 0.149797,-0.0864 0.284966,-0.19976 0.389242,-0.33771 0.104276,-0.13796 0.177034,-0.30087 0.201593,-0.47205 0.01257,-0.0876 0.01257,-0.17698 0,-0.26458"
         style="fill:none;stroke:#000000;stroke-width:0.26458335px;stroke-linecap:butt;stroke-linejoin:miter;stroke-opacity:1" />
      <path
         id="path5160"
         d="m 93.93537,277.43217 c 0.01257,-0.0876 0.01257,-0.17698 0,-0.26458 -0.02456,-0.17117 -0.09732,-0.33409 -0.201594,-0.47204 -0.104277,-0.13795 -0.239445,-0.25131 -0.389243,-0.33771 -0.299596,-0.1728 -0.651026,-0.23628 -0.996663,-0.24858 -0.08816,-0.003 -0.176424,-0.003 -0.26458,0"
         style="fill:none;stroke:#000000;stroke-width:0.26458335px;stroke-linecap:butt;stroke-linejoin:miter;stroke-opacity:1" />
      <path
         id="path5164"
         d="m 91.55412,276.10926 c -0.08806,-0.006 -0.176516,-0.006 -0.26458,0 -0.305297,0.0203 -0.609835,0.11418 -0.855341,0.29678 -0.245505,0.18261 -0.427341,0.45824 -0.467579,0.76155 -0.01163,0.0877 -0.01163,0.1769 0,0.26458"
         style="fill:none;stroke:#000000;stroke-width:0.26458335px;stroke-linecap:butt;stroke-linejoin:miter;stroke-opacity:1" />
      <path
         id="path5168"
         d="m 91.02495,277.16759 v 2.64583 h 1.85209 v -2.64583 z"
         style="fill:none;stroke:#000000;stroke-width:0.26458335px;stroke-linecap:butt;stroke-linejoin:miter;stroke-opacity:1" />
      <path
         id="path3955-65"
         d="M 14.82495,263.14467 H 7.6812009 v -3.175 H 17.99995 v -3.70416 H 7.4166209"
         style="display:inline;fill:none;stroke:#000000;stroke-width:0.26458335px;stroke-linecap:butt;stroke-linejoin:miter;stroke-opacity:1" />
      <path
         id="path3957-9"
         d="m 4.2416209,263.14467 v -3.175"
         style="display:inline;fill:none;stroke:#000000;stroke-width:0.26458335px;stroke-linecap:butt;stroke-linejoin:miter;stroke-opacity:1" />
      <path
         id="path3959-9"
         d="m 14.56037,273.72801 c 0.08813,0.004 0.17645,0.004 0.26458,0 0.893695,-0.0416 1.741856,-0.51932 2.303614,-1.21563 0.561759,-0.6963 0.846933,-1.59421 0.871386,-2.48854 0.0024,-0.0882 0.0024,-0.17641 0,-0.26458"
         style="display:inline;fill:none;stroke:#000000;stroke-width:0.26458335px;stroke-linecap:butt;stroke-linejoin:miter;stroke-opacity:1" />
      <path
         id="path3963-2"
         d="m 17.99995,267.11342 c 0.0024,-0.0882 0.0024,-0.17641 0,-0.26458 -0.02445,-0.89433 -0.309627,-1.79224 -0.871386,-2.48854 -0.561758,-0.69631 -1.409919,-1.17407 -2.303614,-1.21563 -0.08813,-0.004 -0.17645,-0.004 -0.26458,0"
         style="display:inline;fill:none;stroke:#000000;stroke-width:0.26458335px;stroke-linecap:butt;stroke-linejoin:miter;stroke-opacity:1" />
      <path
         id="path3967-7"
         d="m 7.1520409,266.84884 c -0.088086,0.005 -0.1765037,0.005 -0.26459,0 -0.4169102,-0.0256 -0.8229038,-0.17382 -1.1701327,-0.40598 -0.3472289,-0.23217 -0.6364815,-0.54646 -0.8572011,-0.90108 -0.4414391,-0.70922 -0.6038387,-1.56185 -0.6184962,-2.39711 -0.00155,-0.0882 -0.00155,-0.1764 0,-0.26458"
         style="display:inline;fill:none;stroke:#000000;stroke-width:0.26458335px;stroke-linecap:butt;stroke-linejoin:miter;stroke-opacity:1" />
      <path
         id="path3971-8"
         d="m 4.2416209,260.23426 c -0.00241,-0.0882 -0.00241,-0.17642 0,-0.26459 0.024454,-0.89432 0.3096292,-1.79223 0.8713882,-2.48854 0.5617589,-0.6963 1.4099184,-1.17406 2.3036118,-1.21562 0.08813,-0.004 0.1764502,-0.004 0.26458,0"
         style="display:inline;fill:none;stroke:#000000;stroke-width:0.26458335px;stroke-linecap:butt;stroke-linejoin:miter;stroke-opacity:1" />
      <path
         id="path3955-6-0"
         d="m 43.13537,263.14467 h -7.14375 v -3.175 h 10.31875 v -3.70416 H 35.72704"
         style="display:inline;fill:none;stroke:#000000;stroke-width:0.26458335px;stroke-linecap:butt;stroke-linejoin:miter;stroke-opacity:1" />
      <path
         id="path3957-0-5"
         d="m 32.55204,263.14467 v -3.175"
         style="display:inline;fill:none;stroke:#000000;stroke-width:0.26458335px;stroke-linecap:butt;stroke-linejoin:miter;stroke-opacity:1" />
      <path
         id="path3959-4-6"
         d="m 42.87079,273.72801 c 0.08813,0.004 0.17645,0.004 0.26458,0 0.893695,-0.0416 1.741856,-0.51932 2.303614,-1.21563 0.561759,-0.6963 0.846933,-1.59421 0.871386,-2.48854 0.0024,-0.0882 0.0024,-0.17641 0,-0.26458"
         style="display:inline;fill:none;stroke:#000000;stroke-width:0.26458335px;stroke-linecap:butt;stroke-linejoin:miter;stroke-opacity:1" />
      <path
         id="path3963-6-0"
         d="m 46.31037,267.11342 c 0.0024,-0.0882 0.0024,-0.17641 0,-0.26458 -0.02445,-0.89433 -0.309627,-1.79224 -0.871386,-2.48854 -0.561758,-0.69631 -1.409919,-1.17407 -2.303614,-1.21563 -0.08813,-0.004 -0.17645,-0.004 -0.26458,0"
         style="display:inline;fill:none;stroke:#000000;stroke-width:0.26458335px;stroke-linecap:butt;stroke-linejoin:miter;stroke-opacity:1" />
      <path
         id="path3967-4-2"
         d="m 35.46246,266.84884 c -0.08809,0.005 -0.176504,0.005 -0.26459,0 -0.41691,-0.0256 -0.822904,-0.17382 -1.170133,-0.40598 -0.347229,-0.23217 -0.636481,-0.54646 -0.857201,-0.90108 -0.441439,-0.70922 -0.603838,-1.56185 -0.618496,-2.39711 -0.0015,-0.0882 -0.0015,-0.1764 0,-0.26458"
         style="display:inline;fill:none;stroke:#000000;stroke-width:0.26458335px;stroke-linecap:butt;stroke-linejoin:miter;stroke-opacity:1" />
      <path
         id="path3971-9-5"
         d="m 32.55204,260.23426 c -0.0024,-0.0882 -0.0024,-0.17642 0,-0.26459 0.02445,-0.89432 0.309629,-1.79223 0.871388,-2.48854 0.561759,-0.6963 1.409919,-1.17406 2.303612,-1.21562 0.08813,-0.004 0.17645,-0.004 0.26458,0"
         style="display:inline;fill:none;stroke:#000000;stroke-width:0.26458335px;stroke-linecap:butt;stroke-linejoin:miter;stroke-opacity:1" />
      <path
         id="path3949-6-6"
         d="m 32.55204,273.72801 v -3.70417 h 10.31875 v -3.175 h -7.67292"
         style="display:inline;fill:none;stroke:#000000;stroke-width:0.26458335px;stroke-linecap:butt;stroke-linejoin:miter;stroke-opacity:1" />
      <path
         id="path3953-9-2"
         d="m 46.31037,270.02384 v -3.175"
         style="display:inline;fill:none;stroke:#000000;stroke-width:0.26458335px;stroke-linecap:butt;stroke-linejoin:miter;stroke-opacity:1" />
      <path
         id="path4251-3"
         d="m 32.55204,273.46342 v 0.26459 h 10.31875"
         style="display:inline;fill:none;stroke:#000000;stroke-width:0.26458335px;stroke-linecap:butt;stroke-linejoin:miter;stroke-opacity:1" />
    </g>
  </g>
  <g
     id="layer7"
     style="display:inline">
    <path
       style="fill:#ffffff;stroke-width:0.35355338"
       d="M 16.798467,90.064536 V 69.02811 H 36.243903 55.68934 v -6.540738 -6.540738 l -15.114408,-0.0021 C 31.253811,55.943445 24.955765,55.802505 24.143629,55.576955 21.79219,54.923903 19.932625,53.168033 18.389457,50.143649 L 16.975244,47.371998 V 37.075239 26.77848 l 1.114135,-2.351572 c 1.366204,-2.883608 3.443765,-5.02156 6.081397,-6.258174 l 1.996856,-0.936196 20.594485,-0.101843 20.594485,-0.101844 v 6.554193 6.554193 H 47.911165 28.465729 v 6.540737 6.540738 h 14.482426 c 13.731622,0 14.582791,0.03755 16.418405,0.724342 2.707611,1.013047 5.189057,3.449952 6.642738,6.523503 l 1.170527,2.474873 v 9.545942 c 0,9.268091 -0.02482,9.607686 -0.852944,11.667262 -1.148225,2.855704 -4.440521,6.189295 -6.925231,7.012095 -2.541582,0.841634 -2.895825,0.859824 -17.589281,0.903336 l -13.34664,0.03952 v 1.59099 1.590991 H 209.48506 390.5044 v 5.475202 5.475202 l -2.38539,1.202565 -2.38539,1.202566 2.38539,1.17629 2.38539,1.176289 v 5.05064 5.05064 H 203.65143 16.798467 Z M 60.83923,109.16142 c 1.708897,-1.00148 2.981838,-3.20779 2.981838,-5.16823 0,-1.70492 -1.358257,-4.22234 -2.792322,-5.175354 -0.904312,-0.60096 -1.712892,-0.798348 -3.270369,-0.798348 -1.971269,0 -2.069037,-0.04177 -2.069037,-0.883884 v -0.883883 h 4.419417 4.419418 V 93.60007 90.94842 h -4.661347 c -4.002681,0 -4.876601,0.104203 -6.184717,0.737452 -2.101323,1.017233 -3.050323,2.46834 -3.228912,4.937295 -0.283226,3.915563 1.789345,6.292713 5.764639,6.611813 2.129937,0.17097 2.299929,0.24637 2.299929,1.0201 0,0.83542 -3.01e-4,0.83548 -4.596194,0.83548 h -4.596194 v 2.47487 2.47487 h 5.007072 c 4.695391,0 5.100429,-0.0547 6.506779,-0.87888 z m 16.77042,-6.54574 v -7.42462 h 1.944544 1.944543 v -2.12132 -2.12132 h -7.071068 -7.071067 v 2.12132 2.12132 h 2.12132 2.12132 v 7.42462 7.42462 h 3.005204 3.005204 z m 22.91022,5.39169 -0.10603,-2.03293 -4.861356,-0.0984 -4.861359,-0.0984 v -1.21131 -1.2113 l 2.386486,-0.10455 2.386485,-0.10454 0.103878,-2.56326 0.103877,-2.563262 H 93.181488 90.691125 V 96.605274 95.19106 h 4.949748 4.949747 v -2.12132 -2.12132 l -4.861359,0.0078 c -5.212872,0.0083 -6.707827,0.380317 -8.524243,2.121098 -1.613876,1.546654 -1.817194,2.671933 -1.817194,10.057362 v 6.90564 h 7.619041 7.619045 z m 8.20248,-1.85615 v -3.88909 h 2.2981 2.29809 v 3.88909 3.88908 h 2.65165 2.65165 v -9.54594 -9.54594 h -5.07376 c -5.31548,0 -6.91513,0.298802 -8.30647,1.551576 -1.70852,1.538371 -1.82256,2.170238 -1.82256,10.098124 v 7.44218 h 2.65165 2.65165 z m 18.03122,-0.73595 v -4.62503 l 1.15823,0.71583 1.15824,0.71583 1.13986,-0.72171 1.13987,-0.72171 v 4.63091 4.63091 h 2.65165 2.65165 v -9.74358 c 0,-7.695756 -0.0929,-9.689759 -0.44195,-9.487477 -0.3783,0.219235 -5.76884,3.99409 -6.80749,4.76712 -0.19533,0.145378 -1.78632,-0.765715 -3.53554,-2.024652 -1.74921,-1.258936 -3.45881,-2.444843 -3.7991,-2.635348 -0.58266,-0.326188 -0.61872,0.220953 -0.61872,9.388787 v 9.73515 h 2.65165 2.65165 z m 37.75947,2.5921 -0.10603,-2.03293 -4.86136,-0.0984 -4.86136,-0.0984 v -1.21131 -1.2113 l 2.38648,-0.10455 2.38649,-0.10454 0.10388,-2.56326 0.10387,-2.563262 h -2.49036 -2.49036 V 96.605274 95.19106 h 4.94975 4.94974 v -2.12132 -2.12132 l -4.86136,0.0078 c -5.21287,0.0083 -6.70782,0.380317 -8.52424,2.121098 -1.61387,1.546654 -1.81719,2.671933 -1.81719,10.057362 v 6.90564 h 7.61904 7.61904 z m 8.27849,-1.55656 0.10076,-3.5895 2.38844,3.5895 2.38844,3.58949 h 2.47292 2.47292 v -9.54594 -9.54594 h -2.63838 -2.63839 l -0.10165,3.25512 -0.10166,3.255116 -2.42204,-3.255116 -2.42203,-3.25512 h -2.43933 -2.43932 v 9.54594 9.54594 h 2.63928 2.63928 z m 27.8547,-2.42091 v -6.010412 h -4.06586 -4.06587 v 2.121322 2.12132 h 1.41422 1.41421 v 1.76777 1.76776 h -1.94455 -1.94454 v -5.3033 -5.3033 h 4.5962 4.59619 v -2.12132 -2.12132 h -4.26286 c -5.13265,0 -6.92069,0.402011 -8.74915,1.967107 -2.05508,1.75907 -2.26228,2.552942 -2.12977,8.160093 0.10647,4.50581 0.18385,4.99429 0.96447,6.08878 0.47811,0.67037 1.63597,1.55655 2.65165,2.02949 1.62102,0.7548 2.29346,0.83985 6.6643,0.84296 l 4.86136,0.003 z m 8.83883,-3.53554 v -9.54594 h -3.0052 -3.0052 v 9.54594 9.54594 h 3.0052 3.0052 z m 8.13363,5.74524 0.002,-3.8007 2.52406,3.8007 2.52405,3.8007 h 2.42379 2.4238 v -9.54594 -9.54594 h -2.46208 -2.46207 l -0.10119,3.421039 -0.10119,3.421039 -2.56991,-3.421039 -2.56991,-3.421039 h -2.46823 -2.46822 v 9.54594 9.54594 h 2.65165 2.65165 l 0.002,-3.8007 z m 27.92882,1.67938 v -2.12132 h -4.94975 -4.94975 v -1.22128 -1.22128 l 2.38649,-0.10455 2.38649,-0.10454 0.10387,-2.56326 0.10388,-2.563262 h -2.49036 -2.49037 V 96.605274 95.19106 h 4.94975 4.94975 v -2.12132 -2.12132 l -4.50781,0.0021 c -5.2379,0.0021 -6.70276,0.325757 -8.45922,1.867946 -2.0692,1.816635 -2.23577,2.585204 -2.23577,10.316174 v 6.90564 h 7.6014 7.6014 z m 24.2112,1.31281 c 3.57444,-2.02445 4.03833,-7.03346 0.92278,-9.96398 -0.97198,-0.91425 -1.43402,-1.067738 -3.57907,-1.188943 -2.32161,-0.131183 -2.46303,-0.187631 -2.46303,-0.983161 v -0.843985 h 4.41942 4.41942 v -2.677732 -2.677736 l -5.06566,0.114473 c -4.71692,0.10659 -5.15373,0.1749 -6.34512,0.99228 -2.68297,1.840723 -3.46263,5.123597 -1.93586,8.151274 0.98948,1.9622 3.13801,3.16851 5.64338,3.16851 1.57,0 1.69285,0.0641 1.69285,0.88388 v 0.88389 h -4.59619 -4.5962 v 2.47487 2.47487 l 5.03814,-0.006 c 4.56937,-0.005 5.16905,-0.08 6.44514,-0.8027 z m 16.80099,-6.59847 v -7.406971 l 2.03294,-0.106035 2.03293,-0.10603 V 93.06974 91.125196 l -7.15946,-0.09571 -7.15946,-0.09571 v 2.128639 2.128642 h 2.12133 2.12132 v 7.424623 7.42462 h 3.0052 3.0052 z m 22.98097,-2.13896 v -9.54594 h -3.0052 -3.0052 v 7.424621 7.424619 h -2.47488 -2.47487 v -7.440108 -7.440111 l -2.56326,0.103878 -2.56327,0.103877 -0.1037,6.717515 c -0.12018,7.784129 -0.0187,8.605839 1.24929,10.112729 1.55023,1.84234 2.47957,2.05574 9.01907,2.07102 l 5.92202,0.0138 z m 15.12572,8.79057 c 2.66087,-1.2881 2.90266,-2.03078 2.90418,-8.92055 l 0.001,-5.963614 -1.3338,-1.333798 c -1.77352,-1.773519 -3.22351,-2.114231 -9.00764,-2.116575 l -4.86136,-0.002 v 9.545937 9.54594 h 5.36845 c 4.76019,0 5.54525,-0.0856 6.92884,-0.75537 z m 12.01528,-8.70218 -0.0942,-9.457554 -3.09359,-0.102152 -3.0936,-0.102155 v 9.559711 9.5597 h 3.18776 3.18775 z m 16.02071,8.63598 c 2.54142,-1.34394 2.77071,-2.04512 2.81786,-8.61728 0.0245,-3.422242 -0.10893,-5.981039 -0.33395,-6.401481 -0.59936,-1.119916 -2.42467,-2.486888 -3.84891,-2.882436 -0.72316,-0.200843 -2.67325,-0.366059 -4.33352,-0.36714 -2.4324,-0.0018 -3.32349,0.152526 -4.58811,0.793522 -2.57575,1.30557 -2.89358,2.222688 -2.88047,8.311555 0.006,2.86653 0.0216,5.55763 0.0343,5.98023 0.0306,1.01823 1.66358,2.92049 3.01078,3.50729 0.66425,0.28934 2.51601,0.47495 4.82328,0.48347 3.25372,0.012 3.94892,-0.094 5.29871,-0.80773 z"
       id="path6081"
       transform="scale(0.26458335)" />
    <path
       style="fill:#ffffff;stroke-width:0.35355338"
       d="M 81.266716,81.732626 C 77.038774,80.921366 73.280711,77.419975 71.514041,72.64605 70.836129,70.814184 70.750353,69.717358 70.62282,61.249935 l -0.141114,-9.369165 2.413832,-1.188795 2.413833,-1.188796 -2.385395,-1.202565 -2.385394,-1.202565 0.002,-8.038464 c 0.0022,-8.649342 0.219073,-10.796171 1.411502,-13.97271 1.009795,-2.690016 3.944549,-5.881599 6.449313,-7.013712 l 1.859855,-0.840625 20.064158,-0.102157 20.06415,-0.102156 v 6.554506 6.554506 H 100.94417 81.498737 v 6.540737 6.540738 h 19.445433 19.44544 v 6.363961 6.363961 H 100.94417 81.498737 v 6.540738 6.540738 h 19.445433 19.44544 v 6.548929 6.548926 l -18.82672,-0.05569 C 91.208197,82.039659 82.074918,81.887706 81.266716,81.732626 Z"
       id="path6083"
       transform="scale(0.26458335)" />
    <path
       style="fill:#ffffff;stroke-width:0.35355338"
       d="M 123.57159,75.584789 V 69.02811 h 19.44544 19.44543 v -6.540738 -6.540738 l -15.29118,-0.0035 c -15.27109,-0.0035 -15.29351,-0.0045 -17.06153,-0.82786 -3.04793,-1.419269 -5.12537,-4.405065 -6.028,-8.663641 -0.59275,-2.796579 -0.69961,-15.556267 -0.15474,-18.475813 0.81296,-4.356008 3.52368,-8.014356 7.34626,-9.914408 l 1.66749,-0.828839 20.77126,-0.101742 20.77126,-0.101742 v 6.554091 6.554092 h -19.44544 -19.44543 v 6.526284 6.526284 l 14.93763,0.102842 14.93763,0.102842 1.76776,0.935431 c 3.52004,1.862661 5.97285,5.235084 6.85378,9.423407 0.49134,2.336034 0.51857,14.874331 0.0378,17.409369 -0.84694,4.465878 -3.25291,7.766539 -7.00991,9.616641 l -2.34033,1.152471 -20.6026,0.10433 -20.60259,0.10433 z"
       id="path6085"
       transform="scale(0.26458335)" />
    <path
       style="fill:#ffffff;stroke-width:0.35355338"
       d="M 189.68607,56.123411 V 30.137237 h -6.0104 -6.01041 v -6.540738 -6.540738 h 18.38478 18.38477 v 6.540738 6.540738 h -6.01041 -6.0104 v 25.986174 25.986174 h -6.36396 -6.36397 z"
       id="path6087"
       transform="scale(0.26458335)" />
    <path
       style="fill:#ffffff;stroke-width:0.35355338"
       d="m 230.34471,81.723416 c -4.26333,-0.676432 -8.25992,-3.858409 -10.2923,-8.194452 l -1.19818,-2.556311 -0.10195,-20.417708 c -0.088,-17.628795 -0.17253,-20.417708 -0.61872,-20.417708 -0.4347,0 -0.51677,-1.038719 -0.51677,-6.540738 v -6.540738 h 6.36396 6.36396 V 43.041935 69.02811 h 13.61181 13.61181 V 43.041935 17.055761 h 6.36396 6.36396 V 49.587376 82.11899 l -11.92124,-0.09309 -11.92124,-0.09309 -1.07185,-2.542066 c -0.58952,-1.398138 -1.17081,-2.637307 -1.29176,-2.753714 -0.12095,-0.116404 -0.73917,1.076502 -1.37381,2.6509 l -1.15389,2.862545 -4.81338,-0.08731 c -2.64736,-0.04802 -5.52932,-0.200907 -6.40437,-0.339744 z"
       id="path6089"
       transform="scale(0.26458335)" />
    <path
       style="fill:#ffffff;stroke-width:0.35355338"
       d="m 273.73902,81.89897 c -0.14344,-0.143433 -0.26079,-14.791833 -0.26079,-32.551999 v -32.29121 h 17.78951 c 11.31101,0 18.5475,0.140123 19.8709,0.384766 4.67423,0.864078 8.85105,4.075461 10.8849,8.36895 l 1.12894,2.383216 v 21.213204 c 0,21.165226 -0.002,21.217601 -0.79298,23.157747 -1.61986,3.972228 -4.59528,6.844751 -8.84517,8.539279 -2.00938,0.801187 -2.21139,0.81026 -20.77182,0.932946 -10.30849,0.06814 -18.86006,0.0065 -19.00349,-0.136899 z M 310.60133,49.582673 V 30.137237 H 297.51986 284.43838 V 49.582673 69.02811 h 13.08148 13.08147 z"
       id="path6091"
       transform="scale(0.26458335)" />
    <path
       style="fill:#ffffff;stroke-width:0.35355338"
       d="M 326.51124,49.582673 V 17.055761 h 5.48007 5.48008 v 32.526912 32.526912 h -5.48008 -5.48007 z"
       id="path6093"
       transform="scale(0.26458335)" />
    <path
       style="fill:#ffffff;stroke-width:0.35355338"
       d="m 352.26204,81.742512 c -3.52174,-0.582607 -7.4412,-3.352305 -9.3798,-6.628264 -0.49318,-0.833396 -1.19642,-2.478335 -1.56278,-3.655423 -0.61904,-1.988996 -0.66579,-3.53015 -0.66189,-21.819263 0.003,-15.303184 0.10935,-20.072189 0.47711,-21.446869 1.53008,-5.719413 5.70179,-9.753616 11.14582,-10.778434 2.43798,-0.458939 24.10674,-0.469557 26.5142,-0.01299 2.73886,0.519413 5.50915,2.036773 7.43355,4.071544 3.66731,3.877636 4.26386,6.309437 4.27092,17.409997 l 0.005,8.215241 -2.38539,1.202565 -2.3854,1.202565 2.3854,1.176291 2.38539,1.176291 v 8.215218 c 0,4.683536 -0.16941,9.020654 -0.39407,10.088777 -1.24348,5.912046 -5.75649,10.531359 -11.27319,11.538728 -2.25712,0.412162 -24.13076,0.448397 -26.5751,0.04403 z M 378.48358,49.582673 V 30.137237 H 365.40211 352.32063 V 49.582673 69.02811 h 13.08148 13.08147 z"
       id="path6095"
       transform="scale(0.26458335)" />
    <path
       style="fill:#ffffff;stroke-width:0.35355338"
       d="m 344.54246,100.67114 v -4.419419 h 3.0052 3.00521 v 4.419419 4.41942 h -3.00521 -3.0052 z"
       id="path6097"
       transform="scale(0.26458335)" />
    <path
       style="fill:#ffffff;stroke-width:0.35355338"
       d="m 318.73306,100.49436 v -5.3033 h 1.76777 1.76777 v 5.3033 5.3033 h -1.76777 -1.76777 z"
       id="path6099"
       transform="scale(0.26458335)" />
    <path
       style="fill:#ffffff;stroke-width:0.35355338"
       d="M 108.72235,96.605274 V 95.19106 h 2.2981 2.29809 v 1.414214 1.414214 h -2.29809 -2.2981 z"
       id="path6101"
       transform="scale(0.26458335)" />
    <path
       style="fill:#ffffff;stroke-width:0.35355338"
       d="M 1.5956712,64.078362 V 2.206519 H 203.47466 405.35364 V 64.078362 125.95021 H 203.47466 1.5956712 Z m 394.9191388,0 V 11.045354 H 203.47466 10.434506 V 64.078362 117.11137 H 203.47466 396.51481 Z"
       id="path6103"
       transform="scale(0.26458335)" />
  </g>
</svg>
